<svg xmlns="http://www.w3.org/2000/svg" width="151.696" height="103.565" viewBox="0 0 151.696 103.565">
  <g id="logo-jbclassics" transform="translate(0.001 -0.042)">
    <g id="Camada_1" data-name="Camada 1" transform="translate(-0.001 0.042)">
      <path id="Caminho_120" data-name="Caminho 120" d="M88.322,68.163a34.576,34.576,0,1,1,53.249-39.324,38.544,38.544,0,1,0-16.85,42.424,34.6,34.6,0,0,1-36.4-3.1Z" transform="translate(-17.784 -0.042)" fill="#fff"/>
      <circle id="Elipse_2" data-name="Elipse 2" cx="32.219" cy="32.219" r="32.219" transform="translate(59.239 8.606)" fill="none" stroke="#fff" stroke-miterlimit="10" stroke-width="0.5"/>
      <circle id="Elipse_3" data-name="Elipse 3" cx="23.204" cy="23.204" r="23.204" transform="translate(68.984 16.79)" fill="none" stroke="#fff" stroke-miterlimit="10" stroke-width="1"/>
      <circle id="Elipse_4" data-name="Elipse 4" cx="28.981" cy="28.981" r="28.981" transform="translate(62.317 11.465)" fill="none" stroke="#fff" stroke-miterlimit="10" stroke-width="1"/>
      <circle id="Elipse_5" data-name="Elipse 5" cx="10.212" cy="10.212" r="10.212" transform="translate(82.88 30.387)" fill="none" stroke="#fff" stroke-miterlimit="10" stroke-width="1"/>
      <circle id="Elipse_6" data-name="Elipse 6" cx="25.53" cy="25.53" r="25.53" transform="translate(66.993 14.259)" fill="none" stroke="#fff" stroke-miterlimit="10" stroke-width="0.5"/>
      <circle id="Elipse_7" data-name="Elipse 7" cx="13.991" cy="13.991" r="13.991" transform="translate(78.744 26.193)" fill="none" stroke="#fff" stroke-miterlimit="10" stroke-width="0.5"/>
      <circle id="Elipse_8" data-name="Elipse 8" cx="5.719" cy="5.719" r="5.719" transform="translate(87.301 35.056)" fill="#fff"/>
      <path id="Caminho_121" data-name="Caminho 121" d="M179.422,31.1l-2.495-.977c.16-.5.27-.919.423-1.313,1.379-3.6,2.794-7.2,4.136-10.818.343-.912.678-1.255,1.7-.824,2.5,1.05,5.048,1.977,7.659,2.983l-5.106,13.29-2.619-.861-.576,1.51q-7.477,19.432-14.939,38.85a3.107,3.107,0,0,1-1.663,1.86q-4.187,2.057-8.3,4.3a1.634,1.634,0,0,0-.562,1.182,6.215,6.215,0,0,1-6.667,5.836,6.161,6.161,0,1,1,4.275-10.942,1.189,1.189,0,0,0,1.583.219c2.312-1.255,4.676-2.414,6.988-3.647a2.327,2.327,0,0,0,.992-1.094Q171.77,51.229,179.2,31.8A6.016,6.016,0,0,0,179.422,31.1ZM152.987,80.8a2.393,2.393,0,0,0-1.276-2.918,2.269,2.269,0,0,0-2.918,1.291,2.188,2.188,0,0,0,1.247,2.918,2.269,2.269,0,0,0,2.947-1.291Z" transform="translate(-39.149 -4.627)" fill="#fff"/>
      <path id="Caminho_122" data-name="Caminho 122" d="M23.21,127.089c.511,0,.729.292.729.868s-.365.948-1.087,1.422a13.926,13.926,0,0,1-3.421,1.751,19.339,19.339,0,0,1-5.478.729,15.144,15.144,0,0,1-5.529-1.021,12.948,12.948,0,0,1-4.537-2.867A13.327,13.327,0,0,1,0,118.029a13.028,13.028,0,0,1,1.109-5.42,12.6,12.6,0,0,1,3.056-4.231,14.888,14.888,0,0,1,10.424-3.742,15.012,15.012,0,0,1,6.178,1.2q2.83,1.262,2.83,2.145a.875.875,0,0,1-.233.62.729.729,0,0,1-.532.263,1.459,1.459,0,0,1-1.087-.533,4.7,4.7,0,0,0-1.328-.97,11.986,11.986,0,0,0-1.831-.729,12.634,12.634,0,0,0-3.691-.62,13.712,13.712,0,0,0-2.75.226v24.072a13.688,13.688,0,0,0,2.327.226,16.791,16.791,0,0,0,2.072-.131,13.309,13.309,0,0,0,2.064-.43,7.09,7.09,0,0,0,3.414-1.991,4.955,4.955,0,0,1,.656-.678.919.919,0,0,1,.532-.212Z" transform="translate(0.001 -28.338)" fill="#fff"/>
      <path id="Caminho_123" data-name="Caminho 123" d="M39.15,105.1h8.075v26.566H39.15Z" transform="translate(-10.591 -28.466)" fill="#fff"/>
      <path id="Caminho_124" data-name="Caminho 124" d="M70.662,132.728a10.4,10.4,0,0,1-11.569-.357,6.835,6.835,0,0,1-2.436-5.58,6.441,6.441,0,0,1,2.422-5.179,9.891,9.891,0,0,1,6.514-2.05A12.46,12.46,0,0,1,70.7,120.6v-5.164a11.045,11.045,0,0,0-3.013-.489,18.8,18.8,0,0,0-2.188.109,12.181,12.181,0,0,0-1.707.343,6.324,6.324,0,0,0-2.648,1.313,1.517,1.517,0,0,1-.956.489.89.89,0,0,1-.656-.219.635.635,0,0,1-.226-.474,1.138,1.138,0,0,1,.095-.481,1.263,1.263,0,0,1,.357-.445,6.3,6.3,0,0,1,1.816-.963,15.2,15.2,0,0,1,5.464-1.036q8.338,0,10.65,3.983a9.293,9.293,0,0,1,1.014,4.632v11.773H70.677Zm0-10.672a10.81,10.81,0,0,0-4.712-1.145,4.435,4.435,0,0,0-.729.058V132.91a.879.879,0,0,0,.2,0h.233a8.221,8.221,0,0,0,5-1.824Z" transform="translate(-15.326 -30.761)" fill="#fff"/>
      <path id="Caminho_125" data-name="Caminho 125" d="M92.92,131.445a.78.78,0,0,1,.2-.518.642.642,0,0,1,.518-.241.729.729,0,0,1,.525.19l.474.43a7.949,7.949,0,0,0,5.463,1.714c1.576,0,2.59-.328,3.042-.977a.933.933,0,0,0,.19-.54,1.355,1.355,0,0,0-.109-.525,2.191,2.191,0,0,0-.438-.62,9.772,9.772,0,0,0-.963-.868l-1.649-1.335a33.355,33.355,0,0,1-5.617-5.179,6.1,6.1,0,0,1-1.386-3.72,4.8,4.8,0,0,1,2.188-4,9.57,9.57,0,0,1,5.879-1.692,11.153,11.153,0,0,1,4,.584,8.55,8.55,0,0,1,2.064,1.058c.4.321.605.613.605.875,0,.54-.219.81-.642.81a.839.839,0,0,1-.554-.219c-.168-.146-.5-.387-1.007-.729a5.748,5.748,0,0,0-1.991-.817,9.6,9.6,0,0,0-2.305-.306,2.531,2.531,0,0,0-1.51.343.9.9,0,0,0-.445.664,1.5,1.5,0,0,0,.131.62,2.918,2.918,0,0,0,.489.686,16.172,16.172,0,0,0,2.648,2.312c1.211.883,2.239,1.7,3.078,2.436a14.831,14.831,0,0,1,1.977,2.05,5.58,5.58,0,0,1,1.291,3.414,6.4,6.4,0,0,1-.635,2.962,6.2,6.2,0,0,1-1.824,2.108,10.719,10.719,0,0,1-6.667,1.9,11.073,11.073,0,0,1-5.573-1.276C93.409,132.5,92.92,131.97,92.92,131.445Z" transform="translate(-25.139 -30.754)" fill="#fff"/>
      <path id="Caminho_126" data-name="Caminho 126" d="M119.26,131.445a.78.78,0,0,1,.2-.518.627.627,0,0,1,.518-.241.729.729,0,0,1,.525.19l.467.43a7.949,7.949,0,0,0,5.464,1.714c1.576,0,2.59-.328,3.042-.977a.934.934,0,0,0,.19-.54,1.46,1.46,0,0,0-.1-.525,2.459,2.459,0,0,0-.445-.62,10.468,10.468,0,0,0-.956-.868l-1.656-1.335a33.239,33.239,0,0,1-5.609-5.179,6.105,6.105,0,0,1-1.393-3.72,4.814,4.814,0,0,1,2.188-4,9.585,9.585,0,0,1,5.879-1.692,11.123,11.123,0,0,1,4,.584,8.63,8.63,0,0,1,2.072,1.058c.394.321.6.613.6.875,0,.54-.212.81-.642.81a.846.846,0,0,1-.554-.219c-.168-.146-.5-.387-1-.729a5.835,5.835,0,0,0-1.991-.817,9.657,9.657,0,0,0-2.312-.306,2.531,2.531,0,0,0-1.51.343.919.919,0,0,0-.445.664,1.51,1.51,0,0,0,.139.62,2.7,2.7,0,0,0,.489.686,15.765,15.765,0,0,0,2.641,2.312c1.218.883,2.247,1.7,3.086,2.436a14.723,14.723,0,0,1,1.97,2.05,5.58,5.58,0,0,1,1.291,3.414,6.4,6.4,0,0,1-.635,2.962,6.12,6.12,0,0,1-1.824,2.108,10.719,10.719,0,0,1-6.667,1.9,11.073,11.073,0,0,1-5.573-1.277C119.741,132.5,119.26,131.97,119.26,131.445Z" transform="translate(-32.266 -30.754)" fill="#fff"/>
      <rect id="Retângulo_31" data-name="Retângulo 31" width="8.075" height="20.052" transform="translate(107.667 83.148)" fill="#fff"/>
      <path id="Caminho_127" data-name="Caminho 127" d="M173.952,132.783a9.721,9.721,0,0,0,1.773.168,11.07,11.07,0,0,0,1.729-.139,9.755,9.755,0,0,0,1.59-.409,7.667,7.667,0,0,0,2.568-1.459,2.064,2.064,0,0,1,1.014-.605c.474,0,.729.212.729.642s-.387.934-1.167,1.517a11.423,11.423,0,0,1-6.492,1.8,11,11,0,0,1-7.995-2.889,10.212,10.212,0,0,1-2.983-7.608,9.482,9.482,0,0,1,3.173-7.294,11.35,11.35,0,0,1,7.922-2.852,12.663,12.663,0,0,1,5.237,1.123c1.276.554,1.918,1.123,1.918,1.714a.713.713,0,0,1-.7.766,1.984,1.984,0,0,1-1.014-.43,7.141,7.141,0,0,0-3.647-1.634,10.211,10.211,0,0,0-1.9-.168,9.716,9.716,0,0,0-1.787.146Z" transform="translate(-44.563 -30.78)" fill="#fff"/>
      <path id="Caminho_128" data-name="Caminho 128" d="M11.393,53.395H22.517c-1.459,8.024-2.874,15.158-4.318,23.189C15.4,86.657,4.835,86.03.59,83.1c.941-3.275,1.6-6.565,2.538-9.826A2.721,2.721,0,0,0,7.9,72.345L11.393,53.38Z" transform="translate(-0.159 -14.473)" fill="#fff" fill-rule="evenodd"/>
      <path id="Caminho_129" data-name="Caminho 129" d="M24.7,84.439l5.551-31.111,13.538-.058c10.38,1.459,11.314,12.276,3.348,15.048,8.885,3.093,6.127,14.319-4.216,16.113ZM37.268,71.411h2.188a2.473,2.473,0,0,1,2.5,2.918h0a3.428,3.428,0,0,1-3.282,2.918H36.371l.9-5.77Zm1.773-11.284h1.926a2.188,2.188,0,0,1,2.188,2.538h0A3.013,3.013,0,0,1,40.274,65.2H38.253l.788-5.106Z" transform="translate(-6.682 -14.443)" fill="#fff" fill-rule="evenodd"/>
      <circle id="Elipse_9" data-name="Elipse 9" cx="18.141" cy="18.141" r="18.141" transform="translate(74.265 22.006)" fill="none" stroke="#fff" stroke-miterlimit="10" stroke-width="2"/>
    </g>
  </g>
</svg>
