<svg xmlns="http://www.w3.org/2000/svg" width="362.501" height="160.945" viewBox="0 0 362.501 160.945">
  <g id="Camada_2" data-name="Camada 2" transform="translate(0.001)">
    <g id="Layer_1" data-name="Layer 1" transform="translate(-0.001)">
      <path id="Caminho_1" data-name="Caminho 1" d="M308.042,81.038a6.787,6.787,0,0,1,6.271,3.812A6.787,6.787,0,0,0,308.031,81H302L299.52,96.914h.019l2.474-15.887Z" transform="translate(-186.574 -50.453)" fill="#fff"/>
      <path id="Caminho_2" data-name="Caminho 2" d="M293.585,174.856a7.719,7.719,0,0,1,7.134,4.344,7.723,7.723,0,0,0-7.165-4.374H286.71l-2.82,18.1h.019l2.817-18.074Z" transform="translate(-176.838 -108.899)" fill="#fff"/>
      <path id="Caminho_3" data-name="Caminho 3" d="M.214,329.174C-1.713,343.933,9.506,356,25.143,356H316.331c15.634,0,30.012-12.067,31.939-26.83l2.085-15.951L2.3,313.14Zm202.659,11.2h-.72q-4.7,0-6.874-2.523t-1.241-6.878a14.116,14.116,0,0,1,1.335-3.673,15.128,15.128,0,0,1,2.342-3.258,17.116,17.116,0,0,1,5.8-4.106,17.85,17.85,0,0,1,7.123-1.414q6.075,0,9.212,3.375t2.006,8.646a16.3,16.3,0,0,1-2.877,6.124,60.545,60.545,0,0,1-7.941,8.194l-4.661,4.208H191.4l11.927-8.722C203.193,340.351,203.054,340.362,202.873,340.369Zm-22.535,13.658h-6.15l6.033-10.686h7.843Zm-27.5-23.051a14.243,14.243,0,0,1,1.331-3.673,15.278,15.278,0,0,1,2.346-3.258,17.057,17.057,0,0,1,5.8-4.107,17.811,17.811,0,0,1,7.116-1.414q6.075,0,9.212,3.375t2.01,8.647a16.383,16.383,0,0,1-2.877,6.124,60.256,60.256,0,0,1-7.942,8.194l-4.661,4.208H150.194l11.931-8.722a3.818,3.818,0,0,0-.445.019c-.166.019-.4,0-.716,0q-4.7,0-6.878-2.523c-1.444-1.682-1.863-3.971-1.237-6.87Zm-21.8,9.393h-.72q-4.7,0-6.874-2.523t-1.241-6.878a14.244,14.244,0,0,1,1.331-3.673,15.278,15.278,0,0,1,2.346-3.258,17.058,17.058,0,0,1,5.8-4.106,17.831,17.831,0,0,1,7.119-1.414q6.075,0,9.212,3.375t2.006,8.646a16.3,16.3,0,0,1-2.877,6.124,60.546,60.546,0,0,1-7.941,8.194l-4.665,4.208h-15l11.931-8.722C131.343,340.351,131.2,340.362,131.038,340.369Z" transform="translate(0.001 -195.058)" fill="#fff"/>
      <path id="Caminho_4" data-name="Caminho 4" d="M546.693,357.264a3.119,3.119,0,0,0,2.108-.781,3.684,3.684,0,0,0,1.188-2.07,2.534,2.534,0,0,0-.294-2.1,2,2,0,0,0-1.754-.8,3.1,3.1,0,0,0-2.108.8,3.711,3.711,0,0,0-1.2,2.093,2.475,2.475,0,0,0,.3,2.063A2.056,2.056,0,0,0,546.693,357.264Z" transform="translate(-339.196 -218.963)" fill="#fff"/>
      <path id="Caminho_5" data-name="Caminho 5" d="M437.41,357.264a3.146,3.146,0,0,0,2.108-.781,3.7,3.7,0,0,0,1.177-2.074,2.542,2.542,0,0,0-.294-2.093,2,2,0,0,0-1.753-.8,3.114,3.114,0,0,0-2.112.8,3.772,3.772,0,0,0-1.2,2.1,2.471,2.471,0,0,0,.3,2.059A2.067,2.067,0,0,0,437.41,357.264Z" transform="translate(-271.114 -218.963)" fill="#fff"/>
      <path id="Caminho_6" data-name="Caminho 6" d="M356.134,357.264a3.117,3.117,0,0,0,2.108-.781,3.685,3.685,0,0,0,1.177-2.07,2.545,2.545,0,0,0-.294-2.1,2,2,0,0,0-1.753-.8,3.123,3.123,0,0,0-2.112.8,3.708,3.708,0,0,0-1.192,2.093,2.474,2.474,0,0,0,.3,2.063A2.055,2.055,0,0,0,356.134,357.264Z" transform="translate(-220.487 -218.963)" fill="#fff"/>
      <path id="Caminho_7" data-name="Caminho 7" d="M342.238,0H51.054C35.428,0,21.042,12.067,19.115,26.83L7.84,113.127l348.053-.03L367.168,26.83C369.1,12.067,357.88,0,342.238,0ZM20.231,102.481c2.938-10.272,5-20.544,7.919-30.812,3.993,4.94,12.961,4.476,14.967-2.9L54.094,9.363H88.974c-4.525,25.171-9.027,47.513-13.545,72.691C66.651,113.587,33.52,111.66,20.231,102.481Zm112.255,4.276H75.361L92.745,9.25l42.445-.2c32.554,4.48,35.473,38.486,10.491,47.189C173.544,65.934,164.909,101.131,132.487,106.758ZM200.841,106h-34.99l20.74-96.746,63.841-.083-7.406,25.14H216.053l-2.485,11.03h25.865l-7.7,25.457H208.843Zm144.3-.419H313.953l3.16-50.153-22.6,50.153H276.893l-6.328-48.1-13.334,48.166-30.736-.03L254.064,9.2l34.353.087,4.748,49.776L315.31,9.2l33.448.211Z" transform="translate(-4.883)" fill="#fff"/>
      <path id="Caminho_8" data-name="Caminho 8" d="M929.2,305.013l.626-5.053h-.056l-.66,5.053Z" transform="translate(-578.753 -186.848)" fill="#fff"/>
      <path id="Caminho_9" data-name="Caminho 9" d="M6.676,300.04l-.626,4.94h.03l.645-4.94Z" transform="translate(-3.768 -186.898)" fill="#fff"/>
      <path id="Caminho_10" data-name="Caminho 10" d="M301.433,183.926a8.261,8.261,0,0,0-.683-4.676,7.719,7.719,0,0,0-7.135-4.344h-6.859L283.94,192.98h7.221A10.74,10.74,0,0,0,301.433,183.926Z" transform="translate(-176.869 -108.949)" fill="#fff"/>
      <path id="Caminho_11" data-name="Caminho 11" d="M301.433,191.106a10.71,10.71,0,0,1-10.272,9.05H283.94v.03h7.24a10.726,10.726,0,0,0,10.272-9.05,8.272,8.272,0,0,0-.7-4.706A8.262,8.262,0,0,1,301.433,191.106Z" transform="translate(-176.869 -116.129)" fill="#fff"/>
      <path id="Caminho_12" data-name="Caminho 12" d="M314.941,89.037a7.288,7.288,0,0,0-.6-4.118,6.788,6.788,0,0,0-6.271-3.812h-6.033L299.56,96.993h6.35A9.435,9.435,0,0,0,314.941,89.037Z" transform="translate(-186.599 -50.521)" fill="#fff"/>
      <path id="Caminho_13" data-name="Caminho 13" d="M314.954,95.332a9.436,9.436,0,0,1-9.05,7.957H299.58v.026h6.358a9.46,9.46,0,0,0,9.05-7.957,7.268,7.268,0,0,0-.618-4.148A7.286,7.286,0,0,1,314.954,95.332Z" transform="translate(-186.611 -56.816)" fill="#fff"/>
    </g>
  </g>
</svg>
