<svg xmlns="http://www.w3.org/2000/svg" width="68.59" height="68.59" viewBox="0 0 68.59 68.59">
  <g id="youtube" transform="translate(-0.069)">
    <path id="Subtração_1" data-name="Subtração 1" d="M34.3,68.59A34.3,34.3,0,0,1,20.946,2.7a34.3,34.3,0,0,1,26.7,63.2A34.081,34.081,0,0,1,34.3,68.59ZM31.138,49.477a3.526,3.526,0,0,1,.9.117h3.888a3.028,3.028,0,0,1,.8-.109c.09,0,.182,0,.273.012.5.007,1.008.011,1.51.011,3.4,0,6.828-.165,10.2-.49a8.072,8.072,0,0,0,2.552-.624,5.747,5.747,0,0,0,3.385-4.689c.168-1.105.264-2.234.356-3.326.064-.759.13-1.539.22-2.305V32.315l-.064-.715-.031-.345c-.1-1.088-.208-2.32-.32-3.5-.032-.351-.089-.705-.144-1.047l0-.03c-.564-3.673-2.329-5.3-6.091-5.622-3.7-.317-7.589-.471-11.878-.471a2.764,2.764,0,0,1-1.077-.1H32.195a3,3,0,0,1-.808.111c-.09,0-.181,0-.27-.012-.434-.006-.873-.008-1.306-.008-3.314,0-6.664.164-9.957.487a7.6,7.6,0,0,0-3.311,1.026,5.458,5.458,0,0,0-2.6,3.968,38.137,38.137,0,0,0-.48,4.639,5.7,5.7,0,0,1-.063.571c-.013.09-.027.182-.038.273v7c.044.478.086.966.124,1.4v0c.088,1.01.178,2.055.3,3.08a6.785,6.785,0,0,0,1.814,4.24,6.839,6.839,0,0,0,4.258,1.762c3.218.314,6.489.473,9.721.473.407,0,.82,0,1.229-.008C30.914,49.482,31.027,49.477,31.138,49.477Zm-.59-8.355h0c-.155,0-.172-.209-.172-.652V35.027q0-.659,0-1.317v-.17c0-1.294,0-2.631-.008-3.955,0-.3.03-.465.105-.541a.176.176,0,0,1,.132-.051.968.968,0,0,1,.451.188c1.352.84,3.795,2.348,3.809,2.357.361.221,3.538,2.17,5.062,3.1.269.164.389.29.389.408s-.119.241-.409.417c-1.885,1.144-3.795,2.317-5.641,3.453l-.035.021c-.97.6-2.069,1.272-3.137,1.926A1.417,1.417,0,0,1,30.548,41.122Z" transform="translate(0.069)" fill="#fff"/>
  </g>
</svg>
